<?xml version="1.0" encoding="UTF-8" standalone="no"?>
<!-- Created with Inkscape (http://www.inkscape.org/) -->
<svg
   xmlns:dc="http://purl.org/dc/elements/1.1/"
   xmlns:cc="http://web.resource.org/cc/"
   xmlns:rdf="http://www.w3.org/1999/02/22-rdf-syntax-ns#"
   xmlns:svg="http://www.w3.org/2000/svg"
   xmlns="http://www.w3.org/2000/svg"
   xmlns:xlink="http://www.w3.org/1999/xlink"
   xmlns:sodipodi="http://sodipodi.sourceforge.net/DTD/sodipodi-0.dtd"
   xmlns:inkscape="http://www.inkscape.org/namespaces/inkscape"
   width="210mm"
   height="297mm"
   id="svg2"
   sodipodi:version="0.32"
   inkscape:version="0.45.1"
   sodipodi:docbase="C:\Users\Bruno\Desktop\LJColligo-Logo"
   sodipodi:docname="forms_rascunhos.svg"
   inkscape:output_extension="org.inkscape.output.svg.inkscape">
  <defs
     id="defs4">
    <linearGradient
       inkscape:collect="always"
       id="linearGradient3178">
      <stop
         style="stop-color:#ff5555;stop-opacity:1;"
         offset="0"
         id="stop3180" />
      <stop
         style="stop-color:#ff5555;stop-opacity:0;"
         offset="1"
         id="stop3182" />
    </linearGradient>
    <linearGradient
       inkscape:collect="always"
       id="linearGradient2182">
      <stop
         style="stop-color:#008080;stop-opacity:1;"
         offset="0"
         id="stop2184" />
      <stop
         style="stop-color:#008080;stop-opacity:0;"
         offset="1"
         id="stop2186" />
    </linearGradient>
    <linearGradient
       inkscape:collect="always"
       xlink:href="#linearGradient2182"
       id="linearGradient2199"
       gradientUnits="userSpaceOnUse"
       gradientTransform="matrix(0.9588695,0,0,1.08008,105.80272,44.527298)"
       x1="169.03227"
       y1="254.91156"
       x2="298.53281"
       y2="268.54321" />
    <linearGradient
       inkscape:collect="always"
       xlink:href="#linearGradient3178"
       id="linearGradient3184"
       x1="447.11761"
       y1="447.11761"
       x2="102.23726"
       y2="449.16235"
       gradientUnits="userSpaceOnUse"
       gradientTransform="translate(85.879297,2.7263269)" />
  </defs>
  <sodipodi:namedview
     id="base"
     pagecolor="#ffffff"
     bordercolor="#666666"
     borderopacity="1.0"
     inkscape:pageopacity="0.0"
     inkscape:pageshadow="2"
     inkscape:zoom="0.73358774"
     inkscape:cx="372.04724"
     inkscape:cy="689.76071"
     inkscape:document-units="px"
     inkscape:current-layer="layer1"
     inkscape:window-width="1680"
     inkscape:window-height="970"
     inkscape:window-x="-8"
     inkscape:window-y="52" />
  <metadata
     id="metadata7">
    <rdf:RDF>
      <cc:Work
         rdf:about="">
        <dc:format>image/svg+xml</dc:format>
        <dc:type
           rdf:resource="http://purl.org/dc/dcmitype/StillImage" />
      </cc:Work>
    </rdf:RDF>
  </metadata>
  <g
     inkscape:label="Camada 1"
     inkscape:groupmode="layer"
     id="layer1">
    <rect
       style="fill:#ffffff;fill-opacity:1;fill-rule:evenodd;stroke:#000000;stroke-width:0.63700002;stroke-miterlimit:4;stroke-dasharray:none;stroke-opacity:1"
       id="rect2160"
       width="47.71072"
       height="19.084288"
       x="181.54076"
       y="143.638" />
    <rect
       style="fill:#ffffff;fill-opacity:1;fill-rule:evenodd;stroke:#000000;stroke-width:0.63700002;stroke-miterlimit:4;stroke-dasharray:none;stroke-opacity:1"
       id="rect2162"
       width="125.41103"
       height="24.536942"
       x="238.79362"
       y="139.90001" />
    <g
       id="g2168"
       transform="translate(79.809322,1.7146643)">
      <rect
         style="fill:#ffffff;fill-opacity:1;fill-rule:evenodd;stroke:#000000;stroke-width:0.63700002;stroke-miterlimit:4;stroke-dasharray:none;stroke-opacity:1"
         id="rect2164"
         width="47.71072"
         height="19.084288"
         x="102.23726"
         y="174.48492" />
      <rect
         style="fill:#ffffff;fill-opacity:1;fill-rule:evenodd;stroke:#000000;stroke-width:0.63700002;stroke-miterlimit:4;stroke-dasharray:none;stroke-opacity:1"
         id="rect2166"
         width="125.41103"
         height="24.536942"
         x="159.49013"
         y="171.75859" />
    </g>
    <rect
       style="fill:#ffffff;fill-opacity:1;fill-rule:evenodd;stroke:#000000;stroke-width:0.66284925;stroke-miterlimit:4;stroke-dasharray:none;stroke-opacity:1"
       id="rect2174"
       width="51.731522"
       height="19.058439"
       x="485.29913"
       y="215.39276" />
    <rect
       style="fill:#ffffff;fill-opacity:1;fill-rule:evenodd;stroke:#000000;stroke-width:0.96930933;stroke-miterlimit:4;stroke-dasharray:none;stroke-opacity:1"
       id="rect2176"
       width="294.37683"
       height="24.204632"
       x="181.20107"
       y="211.4565" />
    <g
       id="g2194"
       transform="translate(12.645782,-57.801536)">
      <rect
         style="fill:url(#linearGradient2199);fill-opacity:1;fill-rule:evenodd;stroke:#000000;stroke-width:0.87627774;stroke-miterlimit:4;stroke-dasharray:none;stroke-opacity:1"
         id="rect2180"
         width="159.25085"
         height="36.566135"
         x="252.30486"
         y="308.19458" />
      <text
         transform="scale(0.9626882,1.0387579)"
         id="text2190"
         y="322.65805"
         x="279.29205"
         style="font-size:23.42175484px;font-style:normal;font-weight:normal;fill:#000000;fill-opacity:1;stroke:none;stroke-width:1px;stroke-linecap:butt;stroke-linejoin:miter;stroke-opacity:1;font-family:Bitstream Vera Sans"
         xml:space="preserve"><tspan
           y="322.65805"
           x="279.29205"
           id="tspan2192"
           sodipodi:role="line">Download</tspan></text>
    </g>
    <rect
       style="fill:#ffffff;fill-opacity:1;fill-rule:evenodd;stroke:#000000;stroke-width:0.63700002;stroke-miterlimit:4;stroke-dasharray:none;stroke-opacity:1"
       id="rect2201"
       width="359.87512"
       height="137.6795"
       x="178.57442"
       y="295.80646" />
    <rect
       style="fill:none;fill-opacity:1;fill-rule:evenodd;stroke:#000000;stroke-width:0.60898501;stroke-miterlimit:4;stroke-dasharray:none;stroke-opacity:1"
       id="rect2203"
       width="404.88754"
       height="389.89276"
       x="149.93398"
       y="122.67069" />
    <rect
       style="fill:url(#linearGradient3184);fill-opacity:1;fill-rule:evenodd;stroke:#000000;stroke-width:0.63700002;stroke-miterlimit:4;stroke-dasharray:none;stroke-opacity:1"
       id="rect3176"
       width="357.14883"
       height="17.721125"
       x="179.93758"
       y="443.02811" />
    <rect
       style="fill:#ffffff;fill-opacity:1;fill-rule:evenodd;stroke:#000000;stroke-width:0.63700002;stroke-miterlimit:4;stroke-dasharray:none;stroke-opacity:1"
       id="rect3186"
       width="65.431847"
       height="23.173779"
       x="471.65454"
       y="468.92822" />
    <g
       id="g3341"
       transform="matrix(0.5246634,0,0,0.5246634,224.56979,382.73924)">
      <path
         id="path3337"
         d="M 233.18822,356.33834 C 233.35683,356.50696 233.52544,356.67557 233.69405,356.84418 C 234.55345,357.70357 234.70571,415.06349 234.70571,390.73487 C 234.70571,370.00165 225.28874,333.55703 244.82234,318.90683 C 250.26034,314.82833 269.16444,317.57968 239.25819,336.61092 C 238.28837,337.22809 223.95798,350.89947 220.03661,354.82085 C 219.42972,355.42774 244.11935,356.84418 247.85733,356.84418 C 250.05574,356.84418 252.2412,357.1814 254.43313,357.35001 C 265.51554,358.2025 251.58199,372.93885 248.36316,374.54827 C 245.16552,376.14709 180.17026,387.83705 192.72172,383.65323"
         style="fill:none;fill-rule:evenodd;stroke:#000000;stroke-width:1px;stroke-linecap:butt;stroke-linejoin:miter;stroke-opacity:1" />
      <path
         id="path3339"
         d="M 254.93896,379.10075 C 254.58099,379.27974 254.02272,361.88659 269.10224,359.37333 C 270.79834,359.09065 272.47445,358.69889 274.16055,358.36167 C 281.93874,356.80603 281.88537,362.9376 277.19554,366.45497 C 276.5211,366.9608 275.84666,367.46663 275.17221,367.97246 C 271.24662,370.91666 280.35993,379.57718 283.77135,382.13574 C 285.43982,383.3871 285.28884,378.15136 285.28884,376.06576 C 285.28884,365.88141 284.46001,350.25619 286.3005,370.50162 C 286.53465,373.07723 292.19144,413.20179 295.9113,398.32234 C 300.66485,379.30812 303.49877,350.98835 303.49877,335.09343 C 303.49877,312.38629 303.49877,356.05471 303.49877,361.39666 C 303.49877,363.78079 302.81277,405.79899 306.02792,389.72321 C 306.69743,386.37568 315.63872,358.81911 315.63872,371.51328 C 315.63872,383.72659 319.35309,418.10685 325.24951,385.67656 C 325.46279,384.50353 325.58673,383.31601 325.75534,382.13574 C 325.8281,381.62642 329.04684,397.80212 330.81366,390.73487 C 330.87431,390.49226 354.24501,407.79894 358.12854,409.95646 C 366.24819,414.46738 381.96005,420.4066 385.44343,409.95646 C 389.37981,398.14733 383.20999,329.10795 368.751,324.97681 C 334.1514,315.0912 338.54078,362.63983 355.09356,378.08909 C 371.49612,393.39815 444.04395,378.65207 461.82396,374.04244 C 521.74453,358.50748 560.45247,304.74785 614.07917,277.9345 C 616.09122,276.92847 618.46304,276.92283 620.65498,276.417 C 621.40702,276.24345 621.07102,277.24908 621.16081,277.42867"
         style="fill:none;fill-rule:evenodd;stroke:#000000;stroke-width:1px;stroke-linecap:butt;stroke-linejoin:miter;stroke-opacity:1" />
    </g>
    <path
       style="fill:none;fill-rule:evenodd;stroke:#000000;stroke-width:1px;stroke-linecap:butt;stroke-linejoin:miter;stroke-opacity:1"
       d="M 177.94059,137.00474 C 177.94059,465.79507 177.94059,465.79507 177.94059,465.79507"
       id="path3353" />
    <path
       id="path3355"
       d="M 230.54704,138.01641 C 230.54704,466.80674 230.54704,466.80674 230.54704,466.80674"
       style="fill:none;fill-rule:evenodd;stroke:#000000;stroke-width:1px;stroke-linecap:butt;stroke-linejoin:miter;stroke-opacity:1" />
    <path
       style="fill:none;fill-rule:evenodd;stroke:#000000;stroke-width:1px;stroke-linecap:butt;stroke-linejoin:miter;stroke-opacity:1"
       d="M 367.12149,139.5339 C 367.12149,468.32423 367.12149,468.32423 367.12149,468.32423"
       id="path3357" />
    <path
       id="path3359"
       d="M 367.12149,139.5339 C 367.12149,468.32423 367.12149,468.32423 367.12149,468.32423"
       style="fill:none;fill-rule:evenodd;stroke:#000000;stroke-width:1px;stroke-linecap:butt;stroke-linejoin:miter;stroke-opacity:1" />
    <path
       style="fill:none;fill-rule:evenodd;stroke:#000000;stroke-width:1px;stroke-linecap:butt;stroke-linejoin:miter;stroke-opacity:1"
       d="M 476.38105,138.01641 C 476.38105,466.80674 476.38105,466.80674 476.38105,466.80674"
       id="path3361" />
    <path
       style="fill:none;fill-rule:evenodd;stroke:#000000;stroke-width:1px;stroke-linecap:butt;stroke-linejoin:miter;stroke-opacity:1"
       d="M 239.14617,137.51058 C 239.14617,466.30091 239.14617,466.30091 239.14617,466.30091"
       id="path3363" />
    <path
       id="path3365"
       d="M 485.99183,139.02807 C 485.99183,467.8184 485.99183,467.8184 485.99183,467.8184"
       style="fill:none;fill-rule:evenodd;stroke:#000000;stroke-width:1px;stroke-linecap:butt;stroke-linejoin:miter;stroke-opacity:1" />
    <path
       style="fill:none;fill-rule:evenodd;stroke:#000000;stroke-width:1px;stroke-linecap:butt;stroke-linejoin:miter;stroke-opacity:1"
       d="M 538.09245,139.5339 C 538.09245,468.32423 538.09245,468.32423 538.09245,468.32423"
       id="path3367" />
    <path
       style="fill:none;fill-rule:evenodd;stroke:#000000;stroke-width:1px;stroke-linecap:butt;stroke-linejoin:miter;stroke-opacity:1"
       d="M 423.77459,140.03973 C 423.77459,468.83006 423.77459,468.83006 423.77459,468.83006"
       id="path3369" />
    <path
       id="path3371"
       d="M 264.94357,135.48725 C 264.94357,464.27758 264.94357,464.27758 264.94357,464.27758"
       style="fill:none;fill-rule:evenodd;stroke:#000000;stroke-width:1px;stroke-linecap:butt;stroke-linejoin:miter;stroke-opacity:1" />
    <flowRoot
       xml:space="preserve"
       id="flowRoot3373"
       transform="translate(98.019248,4.2438207)"><flowRegion
         id="flowRegion3375"><rect
           id="rect3377"
           width="60.19392"
           height="15.68077"
           x="388.98425"
           y="470.15039" /></flowRegion><flowPara
         id="flowPara3379">Open</flowPara></flowRoot>    <flowRoot
       transform="matrix(0.8588634,0,0,1.1089319,158.57621,-302.45636)"
       id="flowRoot3381"
       xml:space="preserve"><flowRegion
         id="flowRegion3383"><rect
           y="470.15039"
           x="388.98425"
           height="15.68077"
           width="60.19392"
           id="rect3385" /></flowRegion><flowPara
         id="flowPara3387">Choose</flowPara></flowRoot>  </g>
</svg>
